<svg width="20" height="19" viewBox="0 0 20 19" fill="none" xmlns="http://www.w3.org/2000/svg">
<path d="M10.335 1.90137C12.4876 -0.0313363 15.8149 0.0331337 17.8887 2.11035C19.9587 4.1859 20.0335 7.48709 18.1172 9.64648L9.99902 17.7773L1.88184 9.64648C-0.0341293 7.48692 0.0422024 4.17951 2.11035 2.11035C4.18653 0.0351581 7.50765 -0.0342442 9.66699 1.90137L10.001 2.20117L10.335 1.90137ZM17.1807 2.81641C15.5454 1.17914 12.9392 1.0631 11.1709 2.50098L11.0029 2.64453L10.001 3.54297L9 2.64551C7.22724 1.05621 4.51011 1.12661 2.81836 2.81836C1.14245 4.49428 1.05742 7.17722 2.60254 8.95117L2.62598 8.97656L9.64648 16.0068L10 16.3613L10.3535 16.0068L17.374 8.97754L17.3975 8.95215C18.9438 7.17689 18.8578 4.49695 17.1807 2.81641Z" fill="#1C1C27" stroke="black"/>
</svg>
